<svg xmlns="http://www.w3.org/2000/svg" width="400" height="400" viewBox="0 0 400 400" fill="none">
<circle cx="200" cy="200" r="200" fill="#F9FAFB"/>
<path d="M233.258 48.3615C211.943 37.2128 188.055 37.2128 166.741 48.3615L66.374 100.857C50.234 109.299 46.026 133.104 53.75 149.556V232.449C53.75 239.38 58.7868 245 65 245C71.2131 245 76.25 239.38 76.25 232.449V168.389L166.742 215.719C188.057 226.868 211.944 226.868 233.259 215.719L333.626 163.224C355.458 151.805 355.458 112.277 333.626 100.858L233.258 48.3615Z" fill="#4D57D6"/>
<path d="M95 197L166.742 234.517C188.057 245.664 211.945 245.664 233.26 234.517L305 197V286.803C305 303.671 297.448 319.461 284.221 327.633C262.195 341.24 226.94 360 200 360C173.06 360 137.806 341.24 115.78 327.633C102.553 319.461 95 303.671 95 286.803V197Z" fill="#6551CF"/>
</svg>