<svg width="400" height="400" viewBox="0 0 400 400" fill="none" xmlns="http://www.w3.org/2000/svg">
<path d="M0 120V200C0 256.568 0 284.852 17.5736 302.426C27.1006 311.954 39.7754 316.316 58.398 318.312C59.878 316.314 61.279 314.74 62.2784 313.642C64.6016 311.086 67.5478 308.182 70.404 305.366L100.262 275.924L111.289 264.754C118.536 222.302 155.492 190 200.002 190C244.51 190 281.466 222.302 288.714 264.754L299.74 275.924L329.6 305.368C332.456 308.184 335.402 311.088 337.724 313.642C338.724 314.74 340.124 316.314 341.604 318.312C360.226 316.316 372.9 311.954 382.426 302.426C400 284.852 400 256.568 400 200V120C400 63.4313 400 35.1471 382.426 17.5736C364.852 0 336.568 0 280 0H120C63.4314 0 35.1472 0 17.5736 17.5736C0 35.1471 0 63.4313 0 120Z" fill="#F9FAFB"/>
<path d="M100 135C91.7159 135 85.0001 141.716 85.0001 150C85.0001 158.284 91.7159 165 100 165H300C308.284 165 315 158.284 315 150C315 141.716 308.284 135 300 135H100Z" fill="#6551CF"/>
<path d="M125 80C125 71.7158 131.716 65 140 65H260C268.284 65 275 71.7158 275 80C275 88.2842 268.284 95 260 95H140C131.716 95 125 88.2842 125 80Z" fill="#4D57D6"/>
<path d="M140.022 278.348C140.007 278.898 140 279.448 140 280C140 313.138 166.862 340 200 340C233.138 340 260 313.138 260 280C260 279.448 259.992 278.898 259.978 278.348C259.102 245.974 232.584 220 200 220C168.934 220 143.382 243.61 140.31 273.866C140.16 275.344 140.063 276.84 140.022 278.348Z" fill="#12B981"/>
<path d="M113.514 304.988L91.9047 326.296C85.4233 332.688 82.1827 335.884 81.0613 338.59C78.5059 344.756 80.6927 351.598 86.2567 354.841C88.6983 356.263 93.1025 356.708 101.911 357.596C106.884 358.096 109.371 358.346 111.453 359.108C116.116 360.81 119.743 364.385 121.469 368.983C122.24 371.037 122.494 373.489 123.002 378.393C123.902 387.079 124.352 391.421 125.795 393.829C129.085 399.317 136.022 401.473 142.276 398.953C145.02 397.847 148.261 394.651 154.743 388.259L176.35 366.859C146.101 358.644 122.183 335.048 113.514 304.988Z" fill="#F59E0C"/>
<path d="M223.65 366.859L245.258 388.259C251.738 394.651 254.98 397.847 257.724 398.953C263.978 401.473 270.914 399.317 274.204 393.829C275.648 391.421 276.098 387.079 276.998 378.393C277.506 373.489 277.76 371.037 278.53 368.983C280.258 364.385 283.884 360.81 288.546 359.108C290.63 358.346 293.116 358.096 298.09 357.596C306.898 356.708 311.302 356.263 313.744 354.841C319.308 351.598 321.494 344.756 318.938 338.59C317.818 335.884 314.576 332.688 308.096 326.296L286.486 304.988C277.816 335.048 253.898 358.644 223.65 366.859Z" fill="#F59E0C"/>
</svg>
